<mxfile host="app.diagrams.net" modified="2023-06-20T11:07:56.343Z" agent="Mozilla/5.0 (Macintosh; Intel Mac OS X 10_15_7) AppleWebKit/537.36 (KHTML, like Gecko) Chrome/112.0.0.0 YaBrowser/23.5.1.762 Yowser/2.5 Safari/537.36" etag="djR3vyIb6Mf-U8CJ4QrA" version="21.3.3" type="github">
  <diagram name="Страница 1" id="Ew1Pr4SCQpXPiZqC4ZMP">
    <mxGraphModel dx="3347" dy="1940" grid="1" gridSize="10" guides="1" tooltips="1" connect="1" arrows="1" fold="1" page="1" pageScale="1" pageWidth="827" pageHeight="1169" math="0" shadow="0">
      <root>
        <mxCell id="0" />
        <mxCell id="1" parent="0" />
        <mxCell id="iTnwpzUNCe6jhxNct0-f-1" value="" style="whiteSpace=wrap;html=1;" vertex="1" parent="1">
          <mxGeometry x="40" y="40" width="970" height="420" as="geometry" />
        </mxCell>
        <mxCell id="iTnwpzUNCe6jhxNct0-f-2" value="request" style="rounded=0;whiteSpace=wrap;html=1;" vertex="1" parent="1">
          <mxGeometry x="70" y="90" width="420" height="30" as="geometry" />
        </mxCell>
        <mxCell id="iTnwpzUNCe6jhxNct0-f-18" style="edgeStyle=orthogonalEdgeStyle;rounded=0;orthogonalLoop=1;jettySize=auto;html=1;" edge="1" parent="1" source="iTnwpzUNCe6jhxNct0-f-3" target="iTnwpzUNCe6jhxNct0-f-15">
          <mxGeometry relative="1" as="geometry">
            <Array as="points">
              <mxPoint x="170" y="180" />
              <mxPoint x="170" y="180" />
            </Array>
          </mxGeometry>
        </mxCell>
        <mxCell id="iTnwpzUNCe6jhxNct0-f-3" value="render" style="rounded=0;whiteSpace=wrap;html=1;" vertex="1" parent="1">
          <mxGeometry x="120" y="120" width="100" height="30" as="geometry" />
        </mxCell>
        <mxCell id="iTnwpzUNCe6jhxNct0-f-22" style="edgeStyle=orthogonalEdgeStyle;rounded=0;orthogonalLoop=1;jettySize=auto;html=1;" edge="1" parent="1" source="iTnwpzUNCe6jhxNct0-f-4" target="iTnwpzUNCe6jhxNct0-f-11">
          <mxGeometry relative="1" as="geometry">
            <Array as="points">
              <mxPoint x="660" y="135" />
              <mxPoint x="660" y="135" />
            </Array>
          </mxGeometry>
        </mxCell>
        <mxCell id="iTnwpzUNCe6jhxNct0-f-23" value="getState() | {title: &#39;secondTitle&#39;}&amp;nbsp;" style="edgeLabel;html=1;align=center;verticalAlign=middle;resizable=0;points=[];fontColor=#007FFF;" vertex="1" connectable="0" parent="iTnwpzUNCe6jhxNct0-f-22">
          <mxGeometry x="-0.0992" relative="1" as="geometry">
            <mxPoint x="28" y="-15" as="offset" />
          </mxGeometry>
        </mxCell>
        <mxCell id="iTnwpzUNCe6jhxNct0-f-4" value="Helmet.rewind()" style="rounded=0;whiteSpace=wrap;html=1;" vertex="1" parent="1">
          <mxGeometry x="290" y="120" width="100" height="30" as="geometry" />
        </mxCell>
        <mxCell id="iTnwpzUNCe6jhxNct0-f-5" value="request" style="rounded=0;whiteSpace=wrap;html=1;" vertex="1" parent="1">
          <mxGeometry x="90" y="280" width="410" height="30" as="geometry" />
        </mxCell>
        <mxCell id="iTnwpzUNCe6jhxNct0-f-25" style="edgeStyle=orthogonalEdgeStyle;rounded=0;orthogonalLoop=1;jettySize=auto;html=1;" edge="1" parent="1" source="iTnwpzUNCe6jhxNct0-f-6" target="iTnwpzUNCe6jhxNct0-f-21">
          <mxGeometry relative="1" as="geometry">
            <Array as="points">
              <mxPoint x="190" y="398" />
            </Array>
          </mxGeometry>
        </mxCell>
        <mxCell id="iTnwpzUNCe6jhxNct0-f-6" value="render" style="rounded=0;whiteSpace=wrap;html=1;" vertex="1" parent="1">
          <mxGeometry x="140" y="310" width="100" height="30" as="geometry" />
        </mxCell>
        <mxCell id="iTnwpzUNCe6jhxNct0-f-24" style="edgeStyle=orthogonalEdgeStyle;rounded=0;orthogonalLoop=1;jettySize=auto;html=1;" edge="1" parent="1" source="iTnwpzUNCe6jhxNct0-f-7" target="iTnwpzUNCe6jhxNct0-f-11">
          <mxGeometry relative="1" as="geometry">
            <Array as="points">
              <mxPoint x="810" y="325" />
              <mxPoint x="810" y="325" />
            </Array>
          </mxGeometry>
        </mxCell>
        <mxCell id="iTnwpzUNCe6jhxNct0-f-27" value="getState() | undefined" style="edgeLabel;html=1;align=center;verticalAlign=middle;resizable=0;points=[];fontColor=#FF0000;fontStyle=1" vertex="1" connectable="0" parent="iTnwpzUNCe6jhxNct0-f-24">
          <mxGeometry x="-0.1282" relative="1" as="geometry">
            <mxPoint y="-15" as="offset" />
          </mxGeometry>
        </mxCell>
        <mxCell id="iTnwpzUNCe6jhxNct0-f-7" value="Helmet.rewind()" style="rounded=0;whiteSpace=wrap;html=1;" vertex="1" parent="1">
          <mxGeometry x="320" y="310" width="100" height="30" as="geometry" />
        </mxCell>
        <mxCell id="iTnwpzUNCe6jhxNct0-f-10" value="react-helmet" style="text;html=1;strokeColor=none;fillColor=none;align=center;verticalAlign=middle;whiteSpace=wrap;rounded=0;" vertex="1" parent="1">
          <mxGeometry x="205" y="167" width="115" height="30" as="geometry" />
        </mxCell>
        <mxCell id="iTnwpzUNCe6jhxNct0-f-11" value="global state&lt;br&gt;&lt;br&gt;updateState = (newState) =&amp;gt; {&lt;br&gt;&amp;nbsp; &amp;nbsp; &amp;nbsp; &amp;nbsp;state = someTransform(newState)&lt;br&gt;}&lt;br&gt;&lt;br&gt;rewind() {&lt;br&gt;&lt;div&gt;&amp;nbsp; &amp;nbsp; &amp;nbsp; &amp;nbsp; let recordedState = state;&lt;/div&gt;&lt;div&gt;&amp;nbsp; &amp;nbsp; &amp;nbsp; &amp;nbsp; state = undefined;&lt;/div&gt;&lt;div&gt;&amp;nbsp; &amp;nbsp; &amp;nbsp; &amp;nbsp; mountedInstances = [];&lt;/div&gt;&lt;div&gt;&amp;nbsp; &amp;nbsp; &amp;nbsp; &amp;nbsp; return recordedState;&lt;/div&gt;}" style="rounded=1;whiteSpace=wrap;html=1;align=left;verticalAlign=middle;spacingLeft=10;" vertex="1" parent="1">
          <mxGeometry x="750" y="100" width="220" height="325" as="geometry" />
        </mxCell>
        <mxCell id="iTnwpzUNCe6jhxNct0-f-12" value="react-side-effect - находится &quot;под капотом&quot; у react-helmet" style="text;html=1;strokeColor=none;fillColor=none;align=center;verticalAlign=middle;whiteSpace=wrap;rounded=0;fontStyle=1" vertex="1" parent="1">
          <mxGeometry x="765" y="70" width="190" height="30" as="geometry" />
        </mxCell>
        <mxCell id="iTnwpzUNCe6jhxNct0-f-16" style="edgeStyle=orthogonalEdgeStyle;rounded=0;orthogonalLoop=1;jettySize=auto;html=1;" edge="1" parent="1" source="iTnwpzUNCe6jhxNct0-f-15" target="iTnwpzUNCe6jhxNct0-f-11">
          <mxGeometry relative="1" as="geometry">
            <Array as="points">
              <mxPoint x="590" y="210" />
              <mxPoint x="590" y="210" />
            </Array>
          </mxGeometry>
        </mxCell>
        <mxCell id="iTnwpzUNCe6jhxNct0-f-17" value="updateState ({title:&#39;firstTitle&#39;})" style="edgeLabel;html=1;align=center;verticalAlign=middle;resizable=0;points=[];fontColor=#009900;" vertex="1" connectable="0" parent="iTnwpzUNCe6jhxNct0-f-16">
          <mxGeometry x="-0.1953" y="3" relative="1" as="geometry">
            <mxPoint y="-7" as="offset" />
          </mxGeometry>
        </mxCell>
        <mxCell id="iTnwpzUNCe6jhxNct0-f-15" value="&amp;lt;Helmet&amp;gt;&lt;br style=&quot;border-color: var(--border-color);&quot;&gt;&lt;span style=&quot;&quot;&gt;&amp;nbsp;&amp;lt;title&amp;gt;first title&amp;lt;/title&amp;gt;&lt;/span&gt;&lt;br style=&quot;border-color: var(--border-color);&quot;&gt;&lt;span style=&quot;&quot;&gt;&amp;lt;/Helmet&amp;gt;&lt;/span&gt;" style="rounded=1;whiteSpace=wrap;html=1;align=left;" vertex="1" parent="1">
          <mxGeometry x="220" y="190" width="140" height="55" as="geometry" />
        </mxCell>
        <mxCell id="iTnwpzUNCe6jhxNct0-f-19" style="edgeStyle=orthogonalEdgeStyle;rounded=0;orthogonalLoop=1;jettySize=auto;html=1;" edge="1" parent="1" source="iTnwpzUNCe6jhxNct0-f-21" target="iTnwpzUNCe6jhxNct0-f-11">
          <mxGeometry relative="1" as="geometry">
            <mxPoint x="940" y="380" as="targetPoint" />
            <Array as="points">
              <mxPoint x="790" y="388" />
              <mxPoint x="790" y="388" />
            </Array>
          </mxGeometry>
        </mxCell>
        <mxCell id="iTnwpzUNCe6jhxNct0-f-20" value="updateState ({title:&#39;second title&#39;})" style="edgeLabel;html=1;align=center;verticalAlign=middle;resizable=0;points=[];fontColor=#007FFF;" vertex="1" connectable="0" parent="iTnwpzUNCe6jhxNct0-f-19">
          <mxGeometry x="-0.1953" y="3" relative="1" as="geometry">
            <mxPoint y="-7" as="offset" />
          </mxGeometry>
        </mxCell>
        <mxCell id="iTnwpzUNCe6jhxNct0-f-21" value="&amp;lt;Helmet&amp;gt;&lt;br style=&quot;border-color: var(--border-color);&quot;&gt;&lt;span style=&quot;&quot;&gt;&amp;nbsp;&amp;lt;title&amp;gt;second title&amp;lt;/title&amp;gt;&lt;/span&gt;&lt;br style=&quot;border-color: var(--border-color);&quot;&gt;&lt;span style=&quot;&quot;&gt;&amp;lt;/Helmet&amp;gt;&lt;/span&gt;" style="rounded=1;whiteSpace=wrap;html=1;align=left;" vertex="1" parent="1">
          <mxGeometry x="240" y="370" width="140" height="55" as="geometry" />
        </mxCell>
        <mxCell id="iTnwpzUNCe6jhxNct0-f-26" value="react-helmet" style="text;html=1;strokeColor=none;fillColor=none;align=center;verticalAlign=middle;whiteSpace=wrap;rounded=0;" vertex="1" parent="1">
          <mxGeometry x="230.5" y="345" width="115" height="30" as="geometry" />
        </mxCell>
      </root>
    </mxGraphModel>
  </diagram>
</mxfile>
